<?xml version="1.0" standalone="no"?>
<!DOCTYPE svg PUBLIC "-//W3C//DTD SVG 20010904//EN"
 "http://www.w3.org/TR/2001/REC-SVG-20010904/DTD/svg10.dtd">
<svg version="1.0" xmlns="http://www.w3.org/2000/svg"
 width="1080.000000pt" height="1920.000000pt" viewBox="0 0 1080.000000 1920.000000"
 preserveAspectRatio="xMidYMid meet">

<g transform="translate(0.000000,1920.000000) scale(0.100000,-0.100000)"
fill="#000000" stroke="none">
<path d="M5084 13530 c-54 -22 -70 -109 -38 -204 18 -51 13 -120 -10 -151 -12
-17 -15 -17 -37 -2 -24 17 -75 21 -116 9 -12 -4 -35 -25 -51 -47 -25 -34 -40
-43 -108 -65 l-79 -25 -660 1 c-608 1 -676 2 -867 23 -113 12 -238 31 -277 41
-39 11 -95 20 -125 20 -52 0 -59 -3 -118 -53 -35 -29 -80 -66 -101 -81 -20
-16 -40 -38 -43 -51 -3 -12 -39 -50 -80 -85 -125 -106 -219 -218 -339 -401
-13 -20 -47 -83 -75 -140 -51 -100 -95 -172 -179 -289 -55 -77 -180 -262 -231
-343 -36 -58 -43 -77 -43 -121 0 -62 14 -91 53 -111 17 -9 31 -17 32 -18 1 -1
4 -164 7 -362 l6 -361 125 -157 c69 -86 131 -168 139 -180 12 -21 10 -33 -21
-116 -34 -91 -36 -94 -69 -97 -19 -2 -44 -6 -57 -9 -25 -6 -121 -130 -147
-191 -87 -202 -99 -415 -33 -624 44 -143 266 -501 629 -1016 105 -148 168
-234 400 -539 164 -215 163 -215 145 -228 -9 -7 -20 -37 -26 -70 -5 -32 -20
-79 -34 -105 -66 -125 -110 -266 -155 -494 -38 -197 -51 -310 -51 -442 0 -201
46 -371 119 -440 27 -26 37 -29 91 -29 38 1 70 7 85 17 50 33 57 153 13 225
-21 33 -23 48 -23 176 0 176 14 233 95 399 29 60 71 90 230 168 58 28 134 68
170 89 36 21 124 61 195 89 147 58 328 137 425 186 61 30 181 74 203 74 5 0
-14 -18 -42 -40 -28 -22 -69 -64 -91 -94 -23 -30 -57 -64 -76 -75 -19 -11 -39
-33 -45 -48 -6 -16 -13 -98 -16 -183 l-5 -155 46 -93 c77 -153 126 -224 261
-377 80 -92 283 -297 335 -339 19 -16 51 -44 71 -63 35 -33 41 -35 106 -35 59
0 78 5 124 31 71 40 197 101 208 101 5 0 30 16 55 35 44 33 304 165 356 180
14 4 36 17 50 30 14 12 55 37 93 55 l67 33 59 -42 c33 -22 63 -41 68 -42 7 0
88 -47 244 -143 41 -25 80 -41 109 -43 80 -8 445 74 653 147 65 23 121 39 125
35 3 -3 8 -76 10 -163 3 -181 6 -196 32 -222 15 -15 34 -20 76 -20 49 0 59 4
84 30 19 20 32 48 37 78 11 66 8 239 -6 355 -12 94 -12 100 10 144 16 34 24
71 27 130 8 153 -28 213 -128 213 l-45 0 -45 88 c-25 48 -65 116 -89 152 -25
36 -61 90 -82 120 -20 30 -81 102 -136 160 -55 58 -105 115 -111 127 -7 12
-29 27 -49 33 -21 7 -61 28 -90 47 -40 28 -58 49 -83 100 -41 83 -48 129 -24
174 11 22 18 56 18 98 0 58 -3 66 -29 89 -27 23 -34 24 -94 18 -119 -13 -113
-14 -123 19 -29 98 39 936 88 1093 3 11 8 10 26 -2 29 -21 126 -21 155 -1 11
8 31 36 43 62 79 170 189 238 420 258 90 8 124 24 139 66 27 78 4 138 -65 169
-26 11 -54 20 -63 20 -40 1 -152 50 -231 103 -51 34 -120 97 -120 109 0 17 96
155 164 238 86 103 250 270 331 337 174 143 311 215 424 221 l73 4 -7 -33 c-4
-18 -42 -141 -85 -273 -42 -133 -85 -267 -94 -300 -12 -39 -29 -69 -51 -90
-23 -22 -41 -54 -59 -110 -14 -43 -26 -83 -26 -90 0 -6 -13 -18 -29 -27 -23
-14 -34 -33 -56 -105 -21 -67 -36 -97 -62 -120 -19 -19 -33 -42 -33 -55 0 -22
-26 -72 -85 -166 -11 -18 -29 -36 -41 -42 -13 -6 -28 -28 -37 -56 -9 -26 -28
-55 -41 -66 -14 -11 -31 -38 -38 -61 -6 -22 -22 -47 -34 -54 -12 -8 -27 -28
-34 -43 -6 -16 -24 -38 -39 -49 -17 -13 -31 -34 -35 -54 -3 -18 -24 -56 -46
-83 -90 -114 -100 -128 -100 -140 0 -6 -11 -24 -25 -39 -57 -62 -69 -117 -49
-246 8 -52 25 -183 39 -290 14 -107 30 -211 35 -230 5 -19 19 -73 30 -120 73
-294 105 -338 276 -381 40 -10 166 -60 280 -112 115 -52 227 -100 249 -107 72
-23 259 -105 320 -141 33 -19 85 -45 115 -58 30 -12 96 -48 145 -79 74 -47 94
-65 112 -102 79 -160 98 -244 98 -425 0 -123 -3 -145 -21 -180 -45 -84 -39
-194 13 -234 20 -16 40 -21 90 -21 57 0 67 3 89 27 81 87 120 270 111 518 -7
180 -15 244 -59 459 -30 151 -94 355 -141 456 -14 30 -29 77 -32 103 -4 28
-15 57 -26 68 -20 20 -20 20 25 84 55 79 85 121 184 256 42 59 97 135 122 170
25 34 62 86 82 113 20 28 50 69 66 91 16 22 67 92 114 155 79 107 157 216 203
284 11 16 29 41 40 56 89 122 264 404 302 487 31 68 51 165 59 288 5 83 3 115
-15 187 -27 116 -62 196 -115 266 -60 79 -74 90 -129 99 l-48 8 -40 95 c-22
52 -42 100 -45 105 -2 6 37 62 87 125 50 63 110 139 133 169 83 108 76 68 76
440 0 365 3 392 52 412 38 16 48 37 48 105 0 44 -6 67 -23 93 -63 96 -220 329
-236 351 -86 116 -148 214 -205 325 -37 72 -84 153 -105 180 -20 28 -57 77
-81 110 -24 33 -97 113 -162 178 -73 74 -118 126 -118 139 0 22 -28 51 -137
138 -70 57 -77 60 -128 60 -30 0 -87 -9 -127 -19 -40 -11 -113 -24 -163 -30
-304 -34 -361 -36 -990 -36 l-640 0 -73 24 c-60 20 -79 31 -109 67 -35 44 -36
44 -99 44 -59 0 -65 -2 -85 -30 l-22 -29 -24 32 c-38 51 -47 102 -29 151 9 23
16 68 16 100 0 51 -4 61 -30 88 -28 28 -35 30 -85 26 -65 -5 -85 -21 -116 -91
-21 -46 -24 -68 -24 -182 0 -128 0 -131 37 -213 20 -46 35 -89 32 -96 -3 -7
-6 -41 -7 -75 l-2 -63 -42 -14 c-31 -11 -48 -12 -62 -4 -11 5 -33 10 -50 10
-31 0 -31 0 -31 54 0 30 -4 66 -10 80 -7 20 -4 37 15 81 14 30 32 94 42 141
14 75 15 98 4 171 -15 109 -45 172 -91 195 -37 19 -91 22 -126 8z m146 -65
c29 -46 53 -184 45 -257 -6 -60 -36 -162 -62 -211 -8 -16 -11 -36 -7 -45 4
-10 10 -53 13 -97 l6 -80 47 -5 c26 -3 56 -14 68 -25 19 -18 21 -18 33 0 8 10
31 20 53 24 l39 6 6 100 c6 95 5 103 -21 155 -39 79 -53 153 -48 256 5 117 40
198 87 209 42 9 89 -3 101 -25 15 -27 12 -99 -6 -150 -17 -48 -13 -94 12 -142
20 -38 74 -98 88 -98 7 0 17 17 22 38 9 36 10 37 61 40 44 3 55 0 70 -19 74
-92 122 -105 458 -120 271 -12 848 -6 1065 11 356 28 405 34 497 60 112 31
153 27 206 -17 25 -21 68 -57 96 -81 38 -32 51 -50 51 -70 0 -22 14 -39 69
-84 135 -110 319 -352 416 -546 25 -51 70 -127 98 -168 29 -41 61 -89 72 -107
11 -18 28 -41 38 -52 18 -20 100 -141 191 -283 38 -60 46 -80 46 -121 0 -50
-15 -72 -55 -85 -39 -11 -45 -73 -45 -424 0 -294 -2 -330 -18 -354 -19 -28
-28 -40 -179 -231 -57 -71 -103 -135 -103 -142 0 -7 13 -41 29 -76 15 -35 36
-86 46 -112 19 -53 18 -53 88 -62 46 -6 50 -10 107 -86 43 -58 66 -101 84
-157 46 -146 51 -190 37 -315 -18 -169 -30 -205 -114 -352 -97 -171 -157 -258
-563 -820 -43 -60 -83 -115 -89 -121 -5 -6 -41 -56 -80 -109 -38 -54 -97 -135
-130 -181 -144 -198 -245 -345 -245 -357 0 -7 10 -17 22 -22 17 -7 25 -22 29
-55 4 -25 23 -82 43 -127 144 -327 229 -859 181 -1143 -17 -104 -46 -184 -86
-234 -17 -22 -28 -26 -74 -26 -80 0 -99 20 -98 101 0 46 7 79 24 114 35 75 39
261 9 388 -34 146 -110 317 -141 317 -4 0 -45 23 -91 52 -46 28 -108 61 -138
73 -30 12 -79 36 -109 54 -50 30 -276 129 -331 146 -30 9 -143 58 -310 135
-69 32 -165 70 -213 83 -128 36 -154 60 -194 178 -66 195 -104 379 -133 649
-6 52 -16 131 -24 174 -16 97 -7 162 28 191 13 11 33 41 44 68 12 26 26 47 31
47 6 0 18 14 27 32 9 18 29 44 44 59 15 15 33 48 40 74 9 33 20 49 37 56 13 5
28 21 34 36 6 16 23 40 38 55 15 15 33 45 39 66 7 22 22 47 35 55 13 8 29 34
37 58 9 27 24 48 42 58 15 9 28 20 28 25 0 5 11 23 24 40 31 42 72 124 80 163
4 18 15 35 25 38 20 6 38 44 71 146 16 49 28 70 46 78 14 6 26 16 29 23 2 7
16 53 31 102 21 66 33 91 50 98 25 12 48 58 73 149 10 35 52 171 95 301 71
222 87 291 69 301 -5 3 -46 1 -93 -3 -74 -6 -98 -13 -181 -54 -124 -62 -244
-152 -393 -296 -169 -163 -307 -334 -370 -458 l-17 -34 48 -45 c84 -80 208
-150 308 -175 90 -23 135 -44 136 -65 6 -111 -10 -129 -119 -138 -230 -18
-348 -89 -434 -263 l-33 -67 -59 -3 c-32 -2 -63 1 -68 6 -4 4 -12 28 -16 53
-5 28 -13 44 -22 44 -26 0 -78 -321 -105 -650 -9 -104 -20 -234 -25 -288 -11
-113 -7 -250 9 -289 16 -42 45 -53 109 -38 56 12 116 7 128 -12 13 -20 6 -116
-11 -149 -25 -47 -15 -112 29 -200 33 -63 47 -79 96 -112 32 -20 72 -40 89
-43 19 -4 33 -14 37 -28 4 -11 57 -73 119 -136 61 -63 118 -126 125 -139 7
-14 35 -55 61 -93 27 -37 76 -119 109 -182 l61 -114 49 4 c41 2 55 -1 78 -21
26 -23 27 -26 27 -127 0 -88 -3 -110 -24 -151 l-23 -48 16 -163 c13 -127 15
-181 7 -245 -15 -118 -25 -131 -102 -131 -60 0 -66 17 -72 210 -3 91 -9 176
-13 188 -8 28 -9 28 -149 -22 -158 -57 -308 -97 -510 -136 -131 -25 -166 -21
-247 29 -33 20 -78 47 -101 60 -58 34 -223 132 -258 154 -28 18 -29 18 -57 -1
-15 -11 -52 -31 -82 -45 -30 -13 -64 -34 -74 -46 -11 -11 -30 -21 -44 -21 -13
0 -36 -9 -51 -19 -15 -11 -74 -42 -132 -68 -57 -27 -126 -66 -152 -86 -27 -20
-53 -37 -58 -37 -12 0 -142 -64 -204 -100 -41 -24 -62 -30 -112 -30 l-62 0
-98 88 c-196 177 -408 408 -498 542 -23 36 -64 109 -90 163 l-48 98 6 149 c3
83 11 159 17 170 6 11 21 22 34 26 13 3 35 20 47 39 40 55 106 122 161 164 96
72 251 143 350 159 40 7 45 12 75 67 18 33 40 84 49 113 15 50 15 56 -6 123
-23 74 -22 127 2 156 12 15 63 14 153 -3 22 -4 38 0 55 14 25 20 25 22 24 184
-1 355 -94 1080 -136 1066 -7 -3 -16 -24 -22 -49 l-11 -44 -65 0 -65 0 -37 69
c-98 179 -204 243 -428 261 -113 9 -130 20 -130 89 0 64 14 79 90 100 83 22
134 42 210 82 72 37 190 136 190 159 0 21 -111 184 -192 280 -153 184 -398
399 -540 475 -49 26 -73 32 -187 42 -87 8 -135 8 -141 2 -7 -7 0 -46 21 -115
17 -57 33 -113 36 -124 43 -166 163 -475 184 -475 5 0 20 -37 34 -83 17 -58
36 -95 60 -123 19 -21 35 -43 35 -48 0 -5 14 -38 30 -73 17 -34 30 -67 30 -72
0 -5 11 -22 24 -38 13 -15 26 -38 30 -50 4 -13 11 -23 16 -23 5 0 16 -24 25
-53 11 -37 23 -58 39 -67 13 -7 32 -30 42 -51 9 -22 20 -39 23 -39 4 0 12 -12
19 -27 6 -16 21 -41 32 -58 10 -16 29 -47 40 -67 11 -21 33 -52 49 -70 15 -18
31 -46 35 -62 4 -15 15 -30 24 -33 9 -2 31 -27 47 -55 17 -28 41 -62 55 -75
14 -14 32 -37 40 -52 37 -67 76 -121 92 -126 34 -12 47 -113 28 -215 -5 -29
-21 -143 -35 -254 -25 -199 -29 -225 -66 -381 -29 -125 -85 -285 -109 -310
-25 -27 -68 -45 -175 -75 -69 -19 -282 -109 -367 -156 -15 -8 -74 -32 -130
-54 -161 -61 -238 -94 -306 -134 -35 -21 -89 -49 -120 -63 -31 -13 -103 -52
-160 -85 -98 -58 -105 -64 -129 -117 -14 -31 -34 -74 -44 -96 -68 -146 -82
-402 -27 -508 29 -56 31 -146 4 -176 -15 -17 -31 -21 -76 -21 -54 0 -59 2 -84
35 -42 55 -63 111 -81 220 -19 107 -17 265 5 435 31 246 113 547 185 674 15
27 30 72 34 100 5 40 11 53 29 61 12 5 22 16 22 24 0 13 -110 163 -354 481
-125 164 -424 591 -578 827 -77 118 -99 156 -197 331 -86 156 -117 291 -108
463 8 145 51 277 127 385 50 72 65 82 126 86 l49 3 23 65 c12 36 32 86 44 112
l21 48 -48 62 c-27 35 -85 108 -129 163 -125 156 -116 117 -117 500 -1 181 -4
341 -8 355 -4 14 -20 31 -36 39 -40 19 -45 28 -45 86 0 46 7 60 79 170 117
180 128 195 171 255 92 125 127 180 188 300 36 69 77 143 92 165 105 157 146
209 233 296 53 55 115 111 137 125 23 15 40 35 40 45 0 11 8 26 17 33 10 8 53
44 96 80 72 61 82 66 125 66 26 0 70 -7 97 -16 197 -60 972 -97 1565 -74 244
9 295 13 358 32 41 12 82 31 93 43 10 11 30 32 43 48 39 42 126 33 126 -13 0
-34 28 -22 55 24 34 59 42 130 21 192 -19 56 -21 135 -4 152 7 7 39 12 74 12
60 0 63 -1 84 -35z m-1760 -2786 c113 -11 143 -23 248 -97 105 -73 197 -155
338 -302 120 -124 156 -168 221 -268 39 -59 53 -88 48 -102 -15 -47 -193 -157
-305 -189 -164 -48 -170 -53 -170 -144 0 -51 4 -62 28 -87 25 -24 38 -28 113
-34 229 -18 335 -81 420 -248 16 -32 40 -65 54 -74 34 -22 130 -22 155 1 16
14 21 15 24 4 14 -40 69 -448 80 -599 31 -395 31 -489 3 -518 -12 -11 -22 -11
-53 -3 -148 41 -217 -31 -168 -176 9 -26 16 -65 16 -86 -1 -43 -63 -185 -84
-191 -7 -2 -52 -15 -99 -30 -47 -14 -88 -26 -91 -26 -4 0 7 39 23 86 62 182
94 335 129 614 10 85 25 191 31 235 16 108 6 189 -29 224 -36 36 -83 99 -106
144 -11 20 -23 37 -27 37 -5 0 -29 31 -53 69 -25 38 -52 71 -61 74 -8 4 -15
13 -15 21 0 8 -10 27 -23 43 -13 15 -48 69 -78 118 -30 50 -58 97 -64 106 -5
9 -20 35 -33 57 -12 23 -33 49 -46 57 -15 10 -28 33 -35 59 -6 24 -17 49 -26
56 -8 7 -15 17 -15 23 0 6 -8 20 -19 31 -10 12 -40 68 -65 126 -26 58 -58 117
-72 131 -13 14 -35 60 -48 101 -13 42 -34 91 -48 109 -47 65 -85 167 -192 519
-39 130 -41 140 -23 140 8 0 61 -5 117 -11z"/>
<path d="M5140 13416 c0 -7 7 -30 15 -49 18 -44 20 -144 3 -201 -36 -123 -172
-243 -353 -312 -73 -28 -117 -36 -305 -56 -225 -25 -1649 -11 -1917 18 -74 8
-82 4 -185 -94 -130 -123 -255 -297 -349 -484 -58 -116 -108 -197 -189 -308
-107 -147 -239 -346 -240 -362 0 -5 7 -8 15 -8 8 0 23 -9 32 -19 39 -46 43
-84 43 -431 l0 -336 83 -104 c169 -214 227 -290 227 -300 0 -6 -11 -32 -24
-59 -103 -202 -162 -498 -154 -774 l3 -142 59 -95 c32 -52 98 -158 146 -235
105 -166 158 -252 352 -565 79 -129 212 -336 295 -460 83 -124 174 -263 203
-310 29 -47 59 -94 66 -105 9 -14 10 -25 3 -35 -12 -19 -5 -27 -161 185 -41
55 -89 123 -108 150 -18 28 -50 70 -70 95 -115 144 -503 727 -685 1031 -188
315 -235 444 -235 647 0 94 4 121 35 221 20 63 34 120 32 125 -5 16 -100 -132
-119 -185 -38 -108 -43 -137 -42 -254 0 -84 6 -138 18 -180 19 -64 98 -218
176 -344 26 -42 62 -101 81 -131 19 -30 46 -73 62 -95 15 -22 77 -112 137
-200 61 -88 147 -214 193 -280 45 -66 95 -135 111 -152 16 -18 34 -41 40 -51
6 -11 43 -60 81 -110 142 -185 362 -478 389 -519 44 -66 14 -105 -63 -83 -30
8 -33 7 -28 -10 3 -12 -15 -60 -43 -117 -26 -54 -51 -109 -55 -123 -4 -14 -13
-38 -20 -55 -62 -147 -126 -504 -127 -710 -1 -163 26 -276 80 -338 28 -31 33
3 7 48 -50 84 -55 353 -10 502 8 26 15 58 15 69 0 12 8 32 19 45 10 13 22 38
25 56 4 17 14 37 22 44 8 6 14 16 14 21 0 21 54 73 101 97 27 15 77 42 111 62
35 20 74 39 88 42 14 4 53 24 85 45 61 39 225 112 368 162 42 15 83 32 90 38
6 6 35 19 62 30 28 11 97 42 155 70 58 27 142 59 188 70 133 34 146 46 189
182 26 82 54 192 50 197 -3 2 -15 -10 -27 -27 -30 -42 -77 -62 -277 -114 -177
-47 -207 -57 -258 -81 -43 -20 -196 -65 -221 -65 -15 0 -34 21 -69 78 -46 72
-100 156 -200 312 -23 36 -63 99 -89 140 -26 41 -67 104 -90 140 -24 36 -67
103 -97 150 -29 47 -93 145 -141 219 -50 76 -88 144 -88 158 0 26 -64 168 -80
178 -11 7 -83 124 -117 188 -21 41 -22 50 -22 447 -1 445 1 459 60 551 18 28
49 59 75 74 48 28 58 55 21 55 -13 0 -44 7 -70 16 -55 19 -60 32 -55 169 2 73
6 90 18 88 14 -2 58 -14 108 -28 14 -5 22 -3 22 4 0 6 -34 28 -75 48 l-75 37
0 101 c0 55 4 106 9 114 7 11 30 13 123 7 62 -4 129 -10 148 -14 31 -7 35 -11
38 -44 2 -22 -5 -52 -17 -77 -12 -22 -20 -50 -20 -63 1 -26 -13 -119 -35 -228
-22 -111 -22 -110 24 -110 95 0 184 -148 358 -600 22 -58 97 -251 165 -430 69
-179 177 -449 241 -601 63 -152 126 -305 140 -340 13 -35 49 -118 80 -184 l56
-120 234 -3 234 -2 11 67 c6 38 18 136 26 218 9 83 20 161 26 174 12 28 4 59
-22 86 -22 22 -60 75 -86 119 -10 16 -29 41 -43 55 -14 15 -36 50 -49 78 -13
28 -32 54 -42 56 -10 3 -24 18 -31 34 -7 15 -25 44 -40 63 -15 19 -34 52 -43
73 -8 20 -19 37 -25 37 -5 0 -21 24 -35 53 -15 28 -36 62 -48 75 -12 13 -22
35 -23 50 0 20 -7 28 -22 30 -17 3 -32 25 -63 90 -22 48 -47 90 -54 94 -7 5
-30 52 -51 105 -21 54 -50 111 -66 126 -25 27 -59 101 -74 164 -4 15 -15 37
-24 48 -42 47 -99 200 -199 530 -80 267 -83 277 -72 288 6 6 11 24 11 39 0 33
-18 32 206 14 175 -15 254 -29 254 -46 0 -6 5 -10 11 -10 6 0 48 -25 93 -57
216 -150 479 -421 610 -628 63 -99 159 -283 181 -345 29 -82 -28 -50 -102 57
-20 29 -42 53 -48 53 -7 0 -30 -17 -51 -37 -81 -76 -213 -148 -329 -178 -90
-23 -102 -35 -37 -35 61 0 189 -24 246 -46 104 -40 214 -149 263 -260 16 -36
17 -37 20 -14 17 127 78 274 112 268 74 -14 221 -981 209 -1379 -5 -169 -17
-210 -68 -228 -40 -13 -129 -15 -163 -2 l-25 10 20 -52 c30 -77 22 -181 -20
-266 -18 -34 -32 -65 -32 -68 0 -3 15 9 33 27 42 42 137 107 194 132 34 15 43
24 38 36 -4 9 -9 49 -12 87 -5 57 -2 79 15 115 29 65 82 240 97 320 29 161 44
266 60 435 14 142 21 446 14 572 -9 146 -44 362 -79 478 -12 39 -30 102 -42
140 -25 83 -120 309 -184 438 -124 248 -343 556 -566 800 -43 46 -78 89 -78
96 0 17 29 15 320 -24 63 -8 151 -19 195 -24 44 -5 93 -14 108 -20 16 -6 54
-11 86 -11 31 0 62 -5 67 -10 6 -6 39 -14 75 -20 35 -5 85 -13 112 -19 54 -12
97 1 97 29 0 10 11 51 24 91 13 41 56 173 96 295 l71 220 33 1 33 1 35 -107
c73 -216 158 -484 158 -496 0 -6 9 -20 19 -29 16 -14 29 -16 63 -11 24 4 48
11 53 15 6 4 39 10 74 13 35 3 68 10 74 16 6 6 34 11 62 11 27 0 66 5 85 11
19 5 71 14 115 19 44 5 132 16 195 25 221 30 255 34 288 35 17 0 32 -4 32 -9
0 -5 -35 -47 -78 -93 -100 -107 -253 -299 -329 -413 -94 -143 -133 -204 -133
-212 0 -3 -6 -14 -14 -22 -19 -22 -146 -277 -189 -381 -84 -204 -161 -497
-187 -710 -23 -188 -6 -693 30 -885 5 -27 17 -95 26 -150 28 -171 74 -337 115
-417 18 -35 20 -53 16 -107 -3 -37 -9 -76 -12 -88 -6 -19 0 -25 42 -44 60 -27
125 -71 181 -122 47 -44 51 -43 22 5 -52 89 -69 232 -35 297 8 17 15 32 15 34
0 2 -34 2 -75 -1 -83 -5 -129 8 -147 41 -20 38 -37 131 -38 204 0 81 32 491
55 692 21 180 39 289 75 451 41 183 58 232 78 228 35 -7 102 -150 102 -219 0
-13 3 -34 7 -47 5 -21 9 -17 36 35 59 116 166 213 267 242 25 7 59 18 75 23
17 5 67 12 112 15 45 3 80 9 78 13 -2 4 -37 15 -77 25 -114 27 -240 97 -324
177 l-51 49 -24 -29 c-13 -16 -44 -55 -68 -86 -44 -56 -71 -71 -71 -38 0 36
124 277 209 407 105 161 296 370 466 509 183 150 332 227 492 253 l31 5 -82
82 c-134 132 -193 223 -335 516 -45 93 -56 124 -104 280 l-33 105 -72 0 c-42
0 -76 -5 -80 -11 -4 -6 -38 -14 -76 -17 -37 -4 -73 -11 -80 -16 -6 -5 -35 -12
-63 -16 -29 -4 -55 -11 -59 -16 -3 -5 -29 -9 -57 -9 -29 0 -65 -7 -81 -15 -16
-9 -55 -15 -89 -15 -33 0 -89 -7 -124 -16 -42 -10 -88 -14 -140 -11 -89 6
-201 25 -223 38 -8 5 -34 18 -57 29 -50 24 -67 50 -58 91 8 34 30 48 48 30 6
-6 21 -11 33 -11 12 0 27 -7 34 -15 7 -8 27 -15 44 -15 18 0 41 -7 52 -15 15
-11 54 -14 181 -15 89 0 164 4 167 9 3 5 54 12 113 16 60 4 126 13 148 21 22
8 63 14 90 14 28 0 59 7 69 15 12 9 42 15 73 15 59 0 133 25 133 45 0 29 -36
75 -67 86 -31 10 -89 1 -132 -21 -46 -23 -217 -52 -416 -71 -119 -11 -298 -3
-330 14 -11 6 -58 12 -105 13 -59 1 -87 6 -92 16 -40 77 -58 134 -49 158 21
56 51 160 62 216 15 79 23 421 11 465 -8 27 -10 7 -11 -97 -1 -183 -22 -319
-77 -501 -26 -86 -43 -102 -65 -62 -12 22 -9 57 11 184 14 89 27 295 18 295
-3 0 -11 -33 -18 -72 -32 -202 -40 -242 -50 -252 -17 -17 -26 7 -49 133 -35
194 -41 211 -62 211 -19 0 -20 -6 -15 -119 3 -66 10 -139 15 -163 5 -24 15
-76 21 -117 11 -64 10 -75 -4 -89 -14 -14 -18 -10 -45 49 -25 57 -43 123 -80
307 -6 30 -11 122 -12 205 -1 140 -2 149 -14 112 -9 -26 -14 -96 -14 -200 -1
-174 16 -289 64 -438 30 -94 30 -95 3 -160 -31 -76 -35 -79 -124 -82 -44 -2
-90 -7 -104 -13 -41 -16 -267 -24 -360 -13 -209 26 -355 54 -440 86 -37 13
-51 14 -81 5 -35 -12 -69 -52 -69 -83 0 -22 72 -47 133 -47 31 0 61 -6 73 -15
12 -9 42 -14 80 -15 33 0 65 -5 71 -11 15 -15 253 -40 435 -45 129 -4 163 -2
187 11 17 8 43 15 59 15 16 0 35 7 42 15 7 8 23 15 36 15 13 0 24 5 24 10 0 6
8 10 18 10 18 0 42 -37 42 -65 0 -17 -55 -63 -85 -71 -13 -3 -26 -12 -29 -20
-3 -8 -19 -14 -39 -14 -18 0 -59 -7 -90 -15 -67 -17 -199 -20 -229 -4 -11 6
-63 13 -116 16 -54 3 -103 10 -110 16 -7 5 -40 13 -75 18 -77 10 -178 32 -193
41 -6 4 -38 10 -70 14 -33 3 -74 12 -92 20 -19 9 -54 14 -89 12 l-57 -3 -32
-107 c-18 -59 -38 -116 -43 -127 -6 -11 -11 -27 -11 -37 0 -17 -180 -383 -205
-417 -18 -25 -421 -125 -437 -109 -19 19 -12 402 8 434 3 5 7 37 8 71 1 34 10
78 18 97 9 19 19 61 23 93 4 32 15 86 26 120 11 34 24 80 30 102 11 42 14 49
73 184 21 45 35 85 33 88 -5 4 -21 -22 -147 -242 -35 -60 -85 -142 -112 -182
-26 -40 -48 -75 -48 -78 0 -4 -11 -30 -24 -58 -55 -119 -76 -168 -76 -178 0
-21 -42 -144 -76 -221 -19 -43 -34 -93 -34 -113 0 -35 -53 -179 -74 -201 -12
-12 -248 -54 -303 -54 -20 0 -33 5 -33 13 -2 79 2 619 5 639 3 27 -14 50 -139
189 -22 25 -92 105 -155 177 -106 123 -142 152 -121 99 4 -12 41 -87 81 -167
l73 -145 -3 -379 c-1 -209 -4 -383 -6 -387 -3 -3 -5 -84 -5 -178 l-2 -172 -46
-34 c-26 -19 -60 -54 -77 -79 -41 -63 -55 -60 -55 12 2 494 -13 1524 -21 1550
-11 32 -8 38 36 103 49 72 104 123 165 154 32 17 60 17 350 11 173 -4 425 -13
560 -21 135 -8 255 -15 268 -15 13 0 22 -6 22 -15 0 -14 3 -14 24 0 18 12 38
14 82 10 33 -4 151 -11 264 -16 220 -10 450 -24 595 -34 l90 -7 137 148 c308
337 506 607 563 769 26 72 24 196 -3 258 -21 47 -32 59 -32 33z m253 -1359 c7
-22 5 -32 -9 -48 -22 -25 -32 -24 -45 4 -7 16 -7 31 0 51 14 35 41 31 54 -7z
m-128 -147 c0 -36 -29 -33 -33 3 -3 23 0 28 15 25 12 -2 18 -12 18 -28z m190
5 c0 -11 -8 -21 -17 -23 -14 -3 -18 3 -18 23 0 20 4 26 18 23 9 -2 17 -12 17
-23z m-3243 -1560 c1 -60 1 -248 0 -417 -2 -328 -4 -341 -48 -280 -31 43 -79
160 -99 242 -22 89 -25 248 -6 335 23 105 103 240 138 233 10 -2 14 -32 15
-113z"/>
<path d="M5496 13370 c-25 -64 -21 -177 9 -252 26 -65 95 -184 148 -258 103
-144 324 -411 392 -475 18 -16 56 -57 85 -90 63 -73 79 -83 133 -77 23 2 114
8 202 13 208 11 419 25 522 34 55 5 87 4 96 -3 8 -7 18 -7 27 -2 20 13 130 13
130 0 0 -6 12 -2 27 7 29 19 65 22 628 42 447 16 518 15 569 -8 59 -26 130
-92 156 -147 l22 -44 -6 -792 c-3 -436 -6 -830 -6 -875 0 -94 -9 -103 -51 -50
-14 17 -54 48 -87 67 l-61 35 -3 65 c-1 36 -2 97 -3 135 -11 441 -15 639 -16
855 l-1 255 81 167 c45 92 81 172 81 177 0 22 -16 9 -70 -56 -30 -36 -62 -73
-71 -82 -9 -9 -38 -43 -65 -76 -48 -60 -72 -87 -150 -175 -92 -103 -85 -69
-78 -364 3 -143 9 -383 13 -533 9 -376 13 -352 -62 -393 -64 -35 -62 -51 3
-30 52 17 72 8 64 -27 -9 -40 -14 -43 -83 -56 -73 -14 -79 -32 -21 -65 49 -28
92 -85 120 -158 19 -52 20 -77 20 -548 l0 -492 -55 -70 c-31 -38 -66 -87 -79
-109 -13 -22 -90 -148 -171 -280 -203 -330 -370 -606 -417 -690 -21 -38 -45
-76 -52 -85 -7 -8 -15 -20 -17 -25 -10 -25 -122 -205 -135 -216 -20 -17 -106
3 -299 68 -88 30 -218 73 -290 95 -154 47 -196 67 -215 102 -33 63 -19 -2 56
-247 21 -72 55 -98 165 -126 42 -11 127 -43 190 -71 63 -28 152 -69 199 -90
47 -21 135 -57 195 -80 98 -38 199 -85 320 -148 89 -47 155 -73 166 -66 7 4 9
3 5 -4 -5 -9 99 -82 118 -82 35 0 132 -194 160 -318 31 -137 41 -282 27 -385
-7 -50 -20 -104 -27 -119 -29 -56 -34 -76 -20 -87 22 -18 73 93 91 201 46 262
-50 795 -197 1095 -24 49 -38 91 -35 103 4 18 1 19 -37 14 -32 -5 -47 -2 -65
13 -21 17 -22 22 -11 44 22 42 308 445 500 704 66 90 294 401 383 525 46 64
220 322 263 390 55 88 94 163 113 216 25 74 44 221 36 282 -8 55 -40 163 -62
207 -21 42 -94 138 -100 132 -3 -3 11 -55 31 -116 32 -96 36 -122 36 -211 0
-57 -7 -133 -16 -173 -37 -162 -221 -468 -650 -1077 -25 -36 -80 -115 -122
-176 -42 -61 -107 -154 -143 -205 -37 -52 -102 -146 -145 -209 -43 -63 -93
-137 -112 -165 -57 -83 -86 -55 -32 31 17 27 96 155 176 284 81 129 179 285
218 345 40 61 88 135 108 165 19 30 73 114 120 185 46 72 106 164 133 205 26
41 109 166 182 278 74 112 139 218 145 235 22 71 9 354 -23 502 -29 131 -109
349 -150 406 -10 15 -19 32 -19 39 0 6 39 61 88 122 48 61 124 158 170 216
l82 106 0 345 c0 319 2 349 20 388 13 29 27 44 44 49 14 3 26 9 26 13 0 10
-128 199 -250 370 -97 136 -121 175 -171 273 -107 209 -196 334 -344 486
l-111 112 -869 0 c-829 0 -987 4 -1250 32 -96 10 -229 42 -250 60 -5 4 -14 8
-21 8 -7 0 -44 18 -82 40 -93 54 -184 150 -203 216 -16 57 -16 148 1 200 17
50 6 53 -14 4z m3015 -3022 c55 -52 91 -118 110 -198 14 -60 11 -202 -6 -280
-28 -125 -138 -331 -163 -305 -11 11 -28 808 -17 824 10 18 18 13 76 -41z"/>
<path d="M8520 10030 c0 -47 3 -60 15 -60 12 0 15 13 15 60 0 47 -3 60 -15 60
-12 0 -15 -13 -15 -60z"/>
<path d="M5800 13032 c0 -24 48 -62 110 -87 48 -20 108 -31 230 -46 157 -18
209 -18 1074 -9 500 5 910 11 912 13 2 1 -24 25 -58 52 -103 85 -88 80 -181
57 -183 -45 -436 -62 -1042 -69 -730 -7 -948 9 -1022 79 -13 12 -23 16 -23 10z"/>
<path d="M4884 13010 c-18 -19 -64 -35 -174 -62 -67 -17 -1267 -17 -1475 0
-219 17 -339 32 -410 49 -33 8 -70 17 -82 20 -16 4 -40 -10 -92 -51 -38 -31
-72 -60 -75 -65 -7 -10 375 -18 1219 -26 549 -5 614 -3 765 14 187 22 288 54
329 103 27 34 24 47 -5 18z"/>
<path d="M4950 12608 c-60 -77 -102 -126 -200 -232 -35 -39 -69 -76 -75 -82
-55 -62 -134 -141 -150 -151 -26 -16 -111 -16 -246 -2 -115 13 -149 9 -130
-15 19 -23 193 -71 291 -81 36 -4 82 -11 102 -16 61 -15 316 -12 389 6 35 8
83 15 107 15 39 0 44 3 59 35 16 33 16 38 0 83 -34 94 -58 238 -64 375 -4 90
-10 137 -17 137 -6 -1 -36 -33 -66 -72z m74 -288 c9 -41 26 -103 37 -137 25
-77 16 -103 -37 -103 -19 0 -66 -7 -103 -16 -51 -11 -107 -14 -217 -11 -236 6
-470 45 -281 46 55 1 98 6 115 15 15 8 66 56 112 107 47 51 96 105 110 120 91
99 166 184 174 198 5 9 20 29 35 44 l26 28 7 -108 c3 -59 14 -142 22 -183z"/>
<path d="M5650 12557 c0 -119 -28 -301 -59 -380 -14 -36 -14 -70 1 -102 9 -20
18 -25 49 -25 21 0 71 -7 111 -15 83 -18 335 -22 395 -6 21 5 65 12 98 16 96
11 317 74 315 91 0 5 -87 9 -206 9 l-206 0 -95 100 c-135 142 -227 247 -308
348 -38 48 -75 87 -82 87 -10 0 -13 -29 -13 -123z m50 45 c0 -11 147 -181 267
-309 57 -62 113 -124 124 -137 31 -39 79 -49 208 -44 112 5 114 5 71 -9 -138
-45 -486 -67 -610 -39 -38 9 -85 16 -104 16 -29 0 -37 4 -42 25 -3 13 1 46 10
72 30 92 56 248 56 341 0 54 4 92 10 92 6 0 10 -3 10 -8z"/>
<path d="M8145 12240 c-16 -4 -113 -8 -215 -9 -228 -1 -512 -19 -525 -32 -6
-6 -6 -16 1 -27 6 -9 26 -44 44 -77 39 -71 50 -89 107 -178 50 -77 80 -132
107 -197 10 -25 31 -74 47 -110 15 -36 33 -85 39 -110 18 -69 35 -118 74 -203
20 -43 36 -95 37 -115 0 -20 12 -68 27 -106 24 -60 32 -71 62 -82 19 -7 53
-13 74 -13 l39 -1 -8 243 c-16 436 -12 474 53 554 25 32 52 64 59 71 8 8 67
78 132 155 65 78 128 151 140 161 31 28 26 39 -24 64 -38 18 -61 22 -143 21
-53 -1 -110 -5 -127 -9z m258 -39 c15 -12 7 -24 -71 -115 -178 -205 -271 -316
-288 -342 -27 -40 -32 -166 -21 -462 6 -144 7 -265 4 -269 -4 -3 -25 -1 -47 6
-33 10 -43 19 -60 59 -12 26 -25 74 -30 107 -9 65 -26 117 -51 155 -13 21 -49
127 -72 215 -16 59 -126 291 -171 360 -54 82 -156 252 -156 259 0 6 184 15
477 24 138 4 255 11 260 15 13 14 208 4 226 -12z"/>
<path d="M2250 12211 c-45 -25 -90 -69 -90 -90 0 -17 15 -35 129 -161 38 -41
81 -91 97 -110 24 -30 120 -140 175 -203 14 -15 15 -54 11 -339 l-5 -321 34 7
c19 3 52 9 74 12 83 11 84 12 110 70 14 31 25 64 25 72 0 32 33 147 51 176 11
17 19 41 19 52 0 12 11 47 25 78 14 31 25 64 25 74 0 9 7 30 15 46 8 16 18 47
22 69 3 24 16 50 30 63 12 12 23 28 23 36 0 8 35 70 78 139 141 223 186 309
170 321 -8 5 -388 19 -663 23 -301 5 -322 4 -355 -14z m588 -23 c215 -7 392
-16 392 -20 0 -13 -58 -113 -142 -246 -43 -67 -84 -138 -92 -157 -8 -19 -19
-35 -24 -35 -12 0 -32 -45 -32 -73 -1 -12 -9 -40 -20 -62 -11 -22 -19 -48 -20
-57 0 -10 -11 -43 -25 -74 -14 -31 -25 -64 -25 -73 0 -9 -7 -29 -16 -46 -18
-32 -54 -158 -54 -186 0 -19 -37 -106 -48 -112 -4 -3 -35 -7 -70 -11 l-63 -7
4 238 c2 131 7 253 12 270 18 79 12 88 -383 534 -24 27 -40 54 -37 60 4 6 28
24 53 40 55 35 37 34 590 17z"/>
<path d="M7297 12138 c20 -46 40 -94 46 -108 5 -14 15 -38 22 -55 18 -44 45
-149 59 -235 7 -41 16 -84 20 -95 25 -63 28 -78 22 -106 -3 -17 -1 -40 5 -50
17 -33 26 -257 19 -500 l-2 -56 -69 -33 c-37 -19 -66 -37 -63 -42 3 -4 24 -8
48 -8 51 0 67 -14 59 -50 -3 -15 0 -37 6 -49 14 -25 12 -30 -119 -441 -98
-306 -120 -364 -147 -379 -12 -6 -29 -43 -47 -103 -21 -66 -37 -100 -57 -119
-18 -17 -40 -59 -60 -114 -18 -48 -41 -97 -52 -108 -12 -12 -38 -55 -59 -96
-43 -86 -75 -135 -110 -171 -14 -14 -33 -47 -43 -74 -10 -27 -26 -51 -35 -53
-9 -3 -27 -29 -40 -60 -12 -30 -29 -57 -37 -60 -8 -3 -23 -25 -34 -49 -10 -24
-25 -44 -32 -44 -8 0 -29 -29 -46 -65 -18 -36 -38 -65 -46 -65 -7 0 -19 -16
-25 -35 -6 -19 -20 -41 -29 -47 -10 -7 -26 -29 -36 -48 -10 -19 -29 -45 -43
-58 -21 -20 -23 -29 -18 -60 4 -20 8 -55 11 -77 21 -203 46 -379 56 -391 10
-12 49 -15 224 -13 117 0 217 4 222 8 10 6 65 128 146 326 100 243 245 601
367 905 91 226 141 350 293 721 94 230 169 332 253 346 35 6 36 6 30 47 -3 23
-12 82 -21 131 -9 50 -18 108 -19 130 -1 22 -9 57 -19 79 -24 53 -23 112 2
126 11 5 51 10 89 10 38 0 72 3 75 7 4 3 -19 15 -51 25 -117 38 -172 61 -172
70 0 5 -13 43 -30 85 -16 41 -30 89 -30 106 0 36 -16 83 -48 144 -12 23 -22
50 -22 61 0 10 -4 22 -9 27 -5 6 -16 37 -25 70 -17 60 -47 136 -92 230 -13 28
-24 54 -24 58 0 5 -31 56 -69 115 -37 59 -92 149 -120 201 -59 105 -99 171
-105 171 -3 0 11 -37 31 -82z"/>
<path d="M6978 12184 c-2 -1 -66 -5 -143 -9 -137 -6 -225 -21 -225 -38 0 -4
23 -18 51 -29 55 -23 89 -71 89 -127 0 -42 9 -61 31 -61 28 0 43 -30 99 -202
38 -117 58 -163 76 -177 15 -12 24 -29 24 -47 0 -77 194 -390 304 -492 44 -41
47 -42 78 -29 28 12 34 20 40 58 17 112 -5 518 -30 566 -6 10 -17 55 -26 98
-24 125 -53 232 -74 278 -10 23 -32 74 -47 112 -15 39 -34 76 -41 84 -8 9 -42
14 -108 16 -52 1 -97 1 -98 -1z m137 -34 l50 0 52 -128 c48 -117 103 -310 103
-361 0 -12 7 -38 16 -59 31 -74 55 -449 36 -557 -6 -30 -12 -41 -28 -43 -60
-9 -312 369 -331 495 -3 22 -15 46 -28 58 -24 21 -45 71 -95 232 -35 110 -42
125 -75 151 -14 11 -25 28 -25 38 0 34 -47 120 -76 142 l-29 21 80 2 c44 1
114 5 155 9 41 4 91 6 110 4 19 -2 58 -4 85 -4z"/>
<path d="M3477 12133 c-11 -26 -26 -68 -34 -93 -8 -25 -24 -64 -34 -87 -10
-24 -19 -47 -19 -53 0 -6 -11 -42 -25 -81 -13 -38 -27 -98 -31 -132 -4 -34
-12 -73 -19 -87 -7 -14 -15 -54 -19 -90 -20 -195 -24 -270 -19 -318 l6 -54 36
7 c20 4 38 11 41 15 3 5 36 14 72 20 132 21 135 23 195 137 43 83 53 112 53
151 0 53 14 78 45 84 16 3 30 35 76 172 53 161 72 196 106 196 8 0 13 13 13
35 0 19 10 56 22 82 18 38 30 50 70 67 26 11 48 25 48 32 0 18 -130 33 -355
39 l-210 6 -18 -48z m351 0 l143 -6 -20 -21 c-27 -29 -61 -101 -61 -127 0 -13
-13 -34 -31 -48 -25 -22 -40 -53 -83 -185 -49 -146 -55 -159 -83 -171 -33 -14
-43 -37 -43 -100 0 -41 -35 -126 -83 -201 -26 -42 -45 -50 -174 -69 -24 -4
-45 -11 -49 -16 -3 -5 -11 -9 -18 -9 -27 0 -27 56 0 320 4 36 11 70 16 77 5 6
13 42 19 80 9 68 58 242 84 298 8 17 17 44 21 60 4 17 18 54 31 84 l24 54 82
-7 c45 -3 146 -9 225 -13z"/>
<path d="M8496 11785 c-14 -38 10 -1234 25 -1236 5 -1 13 -2 18 -3 5 -1 11
223 14 534 5 518 4 536 -15 574 -14 27 -19 53 -16 89 3 50 -13 76 -26 42z"/>
<path d="M2120 11449 c0 -148 3 -190 13 -187 9 4 13 53 15 191 2 162 0 187
-13 187 -13 0 -15 -27 -15 -191z"/>
<path d="M5333 11498 c-9 -11 -35 -92 -115 -358 -29 -96 -34 -107 -64 -127
-33 -21 -114 -23 -194 -6 -30 7 -104 20 -165 28 -60 9 -126 21 -145 26 -19 6
-69 14 -110 19 -41 4 -112 14 -158 21 -111 16 -117 9 -50 -72 29 -35 55 -66
58 -69 15 -14 126 -169 196 -275 187 -281 325 -575 409 -869 75 -265 97 -424
97 -721 0 -440 -59 -897 -147 -1135 -48 -130 -47 -129 -36 -162 6 -17 11 -54
11 -83 l0 -52 59 0 c81 0 93 -11 89 -87 l-3 -61 -57 -3 c-49 -3 -58 0 -72 20
-9 12 -16 42 -16 65 0 24 -5 43 -10 43 -17 0 -110 -50 -110 -58 0 -5 12 -20
28 -34 34 -32 216 -156 245 -168 12 -4 38 -19 57 -32 19 -13 54 -35 77 -48
l42 -23 73 38 c40 21 100 57 133 80 33 24 78 52 100 63 62 31 79 55 82 120 3
73 18 85 94 80 l57 -4 7 75 c10 117 10 119 -34 241 -94 266 -152 693 -152
1130 -1 369 50 634 187 990 116 301 343 685 546 923 78 91 77 100 -9 92 -38
-4 -84 -10 -103 -15 -19 -5 -64 -11 -99 -15 -36 -3 -67 -8 -70 -10 -4 -2 -67
-13 -141 -24 -74 -12 -160 -27 -190 -34 -110 -24 -211 -8 -225 36 -9 31 -109
349 -127 405 -20 63 -28 72 -45 50z m92 -300 c63 -199 79 -221 160 -234 43 -6
69 -4 165 16 25 5 74 13 110 19 124 19 266 42 347 57 124 21 158 17 118 -16
-43 -36 -243 -323 -346 -498 -176 -298 -321 -694 -374 -1024 -50 -310 -32
-820 43 -1233 29 -155 79 -340 109 -399 11 -22 13 -47 8 -112 l-7 -84 -49 0
c-71 0 -100 -28 -102 -101 -3 -66 -13 -80 -75 -110 -26 -12 -69 -38 -97 -59
-27 -20 -81 -53 -120 -73 l-70 -37 -50 34 c-27 19 -72 45 -100 59 -27 14 -63
37 -80 51 l-30 25 35 1 c20 0 46 7 58 16 19 13 22 24 22 84 0 62 -2 71 -26 89
-14 11 -48 24 -75 27 -49 7 -49 7 -49 44 0 20 -5 50 -10 67 -9 24 -7 39 10 79
67 154 130 454 150 714 6 74 15 182 20 240 40 423 -40 925 -209 1307 -63 143
-121 261 -167 340 -24 40 -44 76 -44 79 0 18 -215 325 -297 425 -35 43 -63 80
-63 83 0 4 10 4 23 2 37 -8 328 -56 467 -77 36 -6 84 -14 107 -19 80 -18 148
-22 188 -11 70 18 87 47 149 251 31 102 59 192 63 200 8 22 23 -18 88 -222z
m-537 -3642 c-3 -13 -6 -13 -23 0 l-20 15 20 15 c18 13 20 13 23 0 2 -9 2 -22
0 -30z"/>
<path d="M2120 11119 c0 -52 24 -48 28 4 2 28 -1 37 -12 37 -12 0 -16 -11 -16
-41z"/>
<path d="M2568 10764 c-5 -4 -8 -24 -8 -45 0 -34 4 -39 50 -63 57 -30 70 -27
70 14 0 16 4 40 10 54 5 14 6 27 2 30 -15 9 -117 17 -124 10z m84 -60 c-5 -28
-4 -27 -37 -12 -42 19 -33 47 13 40 24 -3 28 -8 24 -28z"/>
<path d="M7984 10743 c4 -15 11 -64 17 -108 6 -44 13 -82 14 -84 2 -2 16 0 30
3 l26 7 -3 102 -3 102 -44 3 c-43 3 -44 3 -37 -25z m56 -24 c0 -5 -4 -9 -10
-9 -5 0 -10 7 -10 16 0 8 5 12 10 9 6 -3 10 -10 10 -16z m-3 -66 c-3 -10 -5
-2 -5 17 0 19 2 27 5 18 2 -10 2 -26 0 -35z"/>
<path d="M2566 10452 c-12 -12 -5 -50 10 -56 22 -8 56 12 52 31 -3 17 -52 36
-62 25z"/>
<path d="M7913 10229 c-18 -12 -33 -24 -33 -28 0 -4 -18 -34 -39 -67 -41 -64
-64 -117 -366 -869 -325 -808 -435 -1078 -493 -1210 -49 -113 -51 -114 -264
-114 -131 -1 -158 -3 -158 -15 0 -10 38 -27 118 -51 64 -20 173 -56 242 -80
158 -55 257 -85 281 -85 11 0 30 21 52 58 19 31 71 118 117 192 45 74 104 171
130 215 25 44 77 130 115 190 37 61 117 191 178 290 98 162 153 251 190 310 6
11 38 54 70 97 l57 77 0 464 0 464 -31 62 c-22 44 -43 69 -71 87 -56 36 -59
36 -95 13z m83 -44 c17 -13 44 -48 58 -77 l26 -52 0 -455 0 -456 -53 -65 c-29
-36 -75 -103 -103 -150 -28 -47 -95 -157 -149 -245 -54 -88 -188 -308 -298
-490 -289 -478 -274 -456 -306 -449 -14 3 -98 31 -186 61 -88 30 -191 64 -230
76 l-70 22 122 6 c83 4 127 10 139 20 24 20 89 162 211 464 57 143 120 296
138 340 18 44 93 229 165 410 251 629 364 900 403 965 67 111 78 117 133 75z"/>
<path d="M2700 10199 c-74 -33 -110 -67 -142 -134 l-29 -62 3 -389 3 -389 52
-85 c28 -47 61 -94 72 -104 11 -10 26 -35 32 -55 7 -20 20 -47 30 -61 11 -14
23 -45 27 -70 6 -32 37 -89 100 -185 206 -317 265 -408 362 -560 57 -88 122
-189 145 -225 23 -36 59 -91 78 -122 20 -32 41 -58 47 -58 5 0 56 16 112 36
57 20 184 58 283 85 189 52 248 76 253 101 3 14 -22 16 -186 19 -146 3 -193 7
-206 18 -28 23 -76 127 -184 396 -55 138 -121 299 -147 360 -26 60 -67 162
-92 225 -25 63 -55 142 -68 175 -13 33 -53 139 -90 235 -190 504 -284 722
-355 825 -17 25 -36 45 -43 44 -7 0 -32 -9 -57 -20z m102 -84 c49 -81 133
-276 278 -655 66 -173 137 -358 157 -410 20 -52 74 -187 121 -300 46 -113 127
-311 179 -440 99 -246 162 -373 191 -386 9 -4 87 -9 172 -12 96 -3 147 -8 133
-13 -12 -4 -92 -26 -179 -49 -86 -23 -180 -52 -208 -64 -29 -13 -76 -29 -106
-36 -64 -15 -49 -29 -165 154 -95 150 -191 300 -315 491 -50 77 -134 205 -185
285 -52 80 -95 155 -95 168 0 31 -68 170 -102 210 -15 18 -37 50 -48 72 -11
21 -31 55 -45 76 l-25 37 0 378 0 377 33 63 c27 54 40 67 86 91 30 16 62 27
70 26 9 -2 32 -30 53 -63z"/>
<path d="M5825 7529 c-27 -23 -63 -48 -80 -56 -16 -9 -46 -30 -65 -47 -20 -18
-58 -43 -85 -56 -28 -13 -64 -35 -81 -50 -17 -14 -62 -44 -100 -65 -38 -21
-82 -49 -97 -62 -16 -12 -40 -23 -53 -23 -25 0 -92 33 -149 75 -16 12 -59 37
-95 56 -36 19 -72 42 -82 51 -9 9 -34 27 -55 38 -42 23 -104 67 -113 79 -19
27 -53 38 -83 28 -18 -5 -39 -12 -47 -14 -9 -3 8 -17 43 -36 32 -18 95 -53
140 -79 45 -26 146 -82 224 -125 78 -43 145 -83 147 -90 7 -17 -21 -43 -45
-43 -11 0 -52 20 -92 44 -86 52 -112 67 -242 136 -55 29 -107 59 -115 66 -8 7
-52 33 -96 58 l-82 45 -75 -19 c-77 -19 -173 -57 -226 -87 -88 -52 -194 -140
-213 -178 -8 -15 -4 -13 18 7 51 47 118 75 177 74 52 -1 80 -14 337 -158 25
-14 88 -49 140 -78 109 -59 123 -71 115 -91 -7 -17 -224 -123 -310 -151 -33
-11 -75 -27 -94 -35 -42 -17 -110 -33 -173 -40 -38 -4 -53 0 -78 17 -35 25
-39 19 -7 -14 38 -40 115 -53 163 -28 11 5 30 10 44 10 14 0 46 10 73 22 26
11 51 19 56 16 5 -3 64 20 132 53 68 32 157 73 198 92 l74 33 36 -21 c59 -34
53 -48 -43 -93 -47 -22 -124 -58 -171 -80 -47 -22 -92 -40 -100 -40 -8 0 -38
-11 -67 -24 -156 -70 -298 -85 -405 -43 -39 15 -76 40 -115 79 -63 61 -72 63
-33 6 14 -20 25 -40 25 -43 0 -10 85 -118 167 -215 115 -135 411 -421 435
-419 7 0 31 11 53 24 50 30 203 105 214 105 5 0 26 14 47 31 22 17 86 53 144
80 58 27 112 54 120 59 8 6 29 19 45 30 17 11 40 20 51 20 12 0 28 7 35 17 8
9 37 26 65 39 28 12 72 36 99 53 27 17 58 31 69 31 22 0 64 -23 148 -81 29
-20 98 -62 153 -93 55 -31 122 -71 149 -88 l48 -31 122 22 c66 12 135 26 151
31 17 5 75 21 130 35 142 38 237 71 338 118 60 28 91 37 98 30 6 -6 16 -32 24
-59 16 -60 20 -22 4 41 -11 42 -9 47 19 91 30 45 50 119 39 146 -3 7 -6 -3 -6
-22 -2 -50 -36 -120 -59 -120 -14 0 -23 17 -41 73 -27 84 -125 290 -173 361
-18 27 -38 56 -43 65 -67 103 -98 141 -192 236 -65 65 -145 134 -197 168 -77
52 -90 57 -104 45 -9 -8 -46 -29 -81 -47 -35 -18 -70 -38 -77 -46 -12 -12
-141 -81 -342 -185 -34 -18 -65 -36 -67 -41 -3 -5 -39 -25 -80 -46 l-75 -37
-45 22 c-74 36 -70 39 150 152 99 50 187 97 195 104 16 13 69 44 165 97 33 17
62 33 64 35 5 5 -35 53 -62 74 l-24 19 -48 -40z m-495 -439 c41 -21 49 -37 28
-58 -16 -16 -49 -15 -86 4 -36 17 -42 47 -14 63 24 14 27 14 72 -9z m1273
-161 c53 -27 127 -107 174 -188 34 -58 92 -204 96 -240 1 -8 -13 -23 -32 -35
-28 -16 -57 -21 -145 -24 -99 -3 -123 -1 -221 26 -138 37 -168 49 -337 128
-76 35 -142 64 -146 64 -5 0 -17 9 -28 21 -18 20 -18 21 1 35 29 22 51 17 149
-30 50 -23 116 -53 146 -66 30 -12 87 -36 125 -52 124 -52 243 -72 278 -45 14
10 2 12 -70 13 -67 0 -99 5 -133 21 -25 11 -56 24 -70 28 -14 4 -51 21 -82 36
-32 16 -62 29 -68 29 -18 0 -157 69 -169 84 -19 23 -6 35 78 73 42 19 94 43
116 53 57 27 187 86 205 93 24 10 88 -2 133 -24z"/>
<path d="M6390 6812 c-58 -27 -106 -55 -107 -63 -2 -9 27 -27 81 -51 46 -21
88 -38 95 -38 6 0 22 -6 34 -14 51 -33 139 -38 214 -11 29 10 -54 137 -122
190 -56 42 -78 41 -195 -13z m194 -30 c21 -20 52 -55 68 -77 l29 -40 -23 -6
c-45 -13 -100 -9 -151 12 -92 37 -167 72 -167 79 0 4 35 23 78 43 90 42 111
41 166 -11z"/>
<path d="M4141 7144 c-104 -52 -175 -193 -142 -279 7 -18 16 -19 77 -17 66 3
70 2 98 -28 17 -18 35 -29 43 -26 8 4 33 9 56 12 23 4 58 15 77 24 19 9 49 20
66 23 49 9 184 76 184 91 0 12 -318 191 -382 215 -21 8 -36 5 -77 -15z m135
-45 c32 -18 108 -59 168 -92 98 -55 107 -62 90 -74 -23 -17 -120 -53 -142 -53
-9 0 -31 -8 -47 -19 -17 -10 -56 -21 -86 -25 -50 -6 -56 -5 -77 19 -12 14 -32
25 -44 26 -13 1 -43 2 -68 3 -42 1 -45 3 -48 31 -8 79 102 215 174 215 11 0
47 -14 80 -31z"/>
<path d="M3918 7063 c-14 -3 -18 -14 -17 -46 1 -36 2 -38 8 -16 5 14 14 35 20
47 6 12 10 21 9 21 -2 -1 -11 -3 -20 -6z"/>
<path d="M3890 6879 c0 -14 7 -34 15 -45 14 -18 15 -17 9 11 -10 46 -23 65
-24 34z"/>
<path d="M3930 6771 c0 -6 4 -13 10 -16 6 -3 7 1 4 9 -7 18 -14 21 -14 7z"/>
<path d="M6922 6290 c0 -19 2 -27 5 -17 2 9 2 25 0 35 -3 9 -5 1 -5 -18z"/>
<path d="M6932 6195 c0 -16 2 -22 5 -12 2 9 2 23 0 30 -3 6 -5 -1 -5 -18z"/>
<path d="M6933 6075 c0 -27 2 -38 4 -22 2 15 2 37 0 50 -2 12 -4 0 -4 -28z"/>
</g>
</svg>
