<?xml version="1.0" standalone="no"?>
<!DOCTYPE svg PUBLIC "-//W3C//DTD SVG 20010904//EN"
 "http://www.w3.org/TR/2001/REC-SVG-20010904/DTD/svg10.dtd">
<svg version="1.0" xmlns="http://www.w3.org/2000/svg"
 width="500.000000pt" height="500.000000pt" viewBox="0 0 500.000000 500.000000"
 preserveAspectRatio="xMidYMid meet">

<g transform="translate(0.000000,500.000000) scale(0.100000,-0.100000)"
fill="#000000" stroke="none">
<path d="M2333 4858 c-23 -11 -43 -61 -43 -109 0 -28 -37 -68 -85 -91 -83 -41
-114 -43 -600 -43 -493 1 -597 7 -700 46 -106 40 -121 33 -286 -131 -116 -116
-177 -190 -231 -284 -23 -39 -85 -130 -139 -201 -91 -123 -139 -193 -139 -205
0 -3 12 -18 26 -35 61 -70 59 -59 62 -335 3 -250 4 -255 26 -280 30 -32 86
-111 86 -120 0 -4 -12 -20 -26 -36 -150 -170 -192 -373 -115 -554 17 -41 53
-105 79 -142 243 -345 572 -828 572 -840 0 -5 -11 -33 -24 -61 -127 -279 -135
-635 -16 -779 38 -46 89 -65 131 -48 45 19 47 38 19 190 -30 165 24 293 162
388 43 30 225 124 308 160 188 82 305 138 316 153 6 8 14 41 18 74 3 33 11 92
16 130 5 39 14 122 20 185 5 63 13 134 16 156 6 40 4 44 -66 120 -79 87 -136
166 -229 322 -120 201 -182 342 -237 536 -54 191 -44 244 43 232 112 -15 246
-99 376 -236 152 -159 142 -205 -54 -271 -55 -19 -98 -38 -96 -44 2 -5 57 -37
123 -70 66 -33 140 -75 166 -92 152 -106 208 -267 195 -555 -6 -114 -24 -213
-45 -244 -4 -6 -26 -21 -48 -34 -56 -30 -70 -57 -57 -109 9 -33 8 -42 -6 -54
-35 -30 -111 -77 -221 -136 -63 -34 -129 -77 -147 -96 -38 -40 -63 -118 -63
-198 0 -108 12 -130 150 -271 150 -154 351 -333 393 -351 37 -15 71 -6 134 37
23 15 46 28 51 28 6 0 12 4 14 8 3 7 128 83 228 140 19 10 52 29 72 41 l38 23
29 -21 c16 -12 32 -21 35 -21 3 0 63 -34 134 -76 228 -138 278 -164 309 -164
30 0 86 43 273 212 54 48 100 85 104 81 11 -11 7 -79 -9 -154 -9 -40 -13 -79
-11 -86 8 -19 40 -16 64 6 48 41 72 167 53 280 l-10 65 43 45 c55 59 72 134
56 236 -21 130 -43 152 -268 270 -51 27 -110 64 -132 83 -36 30 -40 37 -34 67
11 61 -3 94 -51 116 -78 37 -100 131 -92 394 6 186 20 243 85 329 62 81 106
114 258 191 77 39 139 75 139 79 0 5 -34 21 -76 37 -110 39 -148 59 -166 85
-32 49 2 110 131 234 81 78 139 120 219 158 123 59 197 50 197 -23 0 -38 -36
-184 -70 -285 -77 -225 -295 -596 -433 -737 l-70 -72 12 -148 c7 -81 16 -170
21 -198 5 -27 14 -94 21 -148 14 -114 17 -119 116 -161 37 -16 106 -47 151
-68 46 -21 86 -38 89 -38 3 0 54 -24 113 -54 200 -100 269 -157 315 -259 25
-53 26 -66 22 -155 -2 -53 -10 -123 -18 -155 -15 -65 -9 -84 33 -104 65 -32
150 39 189 160 21 63 23 91 23 222 0 172 -19 267 -84 418 l-38 88 105 157
c117 174 184 272 196 287 5 5 41 57 81 115 89 130 139 200 186 265 116 159
157 320 115 458 -23 75 -82 181 -131 231 l-44 47 32 47 c17 26 44 62 60 80
l28 33 0 240 c0 262 2 275 59 339 17 19 31 39 31 43 0 12 -49 82 -150 217 -48
63 -105 147 -128 186 -55 95 -115 169 -231 285 -158 157 -181 168 -281 133
-97 -35 -210 -44 -630 -50 -269 -4 -452 -3 -519 4 -168 17 -241 66 -241 161 0
68 -58 107 -121 81 -63 -27 -64 -32 -61 -365 1 -226 -1 -314 -11 -355 l-14
-55 -15 36 c-26 59 -30 142 -19 389 6 143 7 251 1 275 -15 68 -78 101 -137 73z
m55 -95 c8 -103 -62 -237 -193 -369 -81 -82 -204 -181 -263 -213 -45 -24 -19
6 61 69 120 96 277 258 311 321 l30 54 -33 -27 c-58 -50 -129 -75 -246 -88
-207 -23 -977 -5 -1120 26 -38 9 -81 18 -96 21 -21 4 -40 -10 -125 -94 -158
-157 -207 -218 -252 -315 -12 -26 -65 -104 -118 -173 l-95 -125 34 -40 34 -40
7 -248 7 -247 27 -38 c55 -77 92 -143 98 -175 6 -32 2 -38 -61 -100 -90 -87
-127 -164 -133 -277 -7 -139 -34 -92 560 -965 58 -85 115 -171 125 -190 l20
-36 -24 -34 c-97 -138 -143 -300 -141 -490 1 -99 2 -107 8 -55 25 208 86 300
271 410 93 55 382 199 471 234 65 26 63 21 78 171 5 53 11 111 14 130 3 19 8
68 11 108 7 81 10 75 -95 192 -111 124 -342 532 -497 880 -56 124 -69 217 -49
338 l9 52 -31 0 c-17 0 -34 5 -37 10 -3 6 3 10 15 10 52 0 75 25 115 127 21
54 46 116 55 138 67 152 160 386 160 401 0 6 -17 15 -37 18 -52 10 -525 18
-595 10 l-58 -7 43 -51 c23 -28 55 -64 70 -81 28 -30 28 -30 23 -135 -3 -58
-8 -175 -12 -260 l-6 -155 37 -42 c32 -38 34 -43 16 -43 -22 0 -48 -37 -34
-50 4 -5 21 -10 38 -12 19 -2 31 -9 33 -21 3 -16 -2 -18 -35 -15 -36 3 -38 2
-41 -29 -2 -25 2 -34 20 -44 13 -6 25 -13 27 -15 2 -2 -14 -21 -35 -41 -22
-21 -46 -58 -53 -81 -17 -50 -37 -70 -27 -26 4 16 9 101 13 189 3 88 10 166
15 173 7 7 7 17 1 25 -5 7 -6 69 -2 147 4 74 7 194 8 266 1 129 1 131 -25 155
-47 43 -154 181 -148 190 3 5 69 9 147 9 158 0 689 -20 697 -27 2 -2 0 -10 -5
-17 -39 -52 -53 -81 -107 -208 -166 -398 -238 -599 -238 -668 0 -26 14 -86 30
-136 33 -97 168 -377 251 -520 28 -49 59 -102 69 -119 90 -157 197 -312 262
-380 58 -60 58 -59 28 -344 -19 -182 -29 -221 -52 -221 -12 0 -228 -102 -363
-171 -169 -86 -228 -124 -286 -182 -71 -70 -76 -79 -110 -167 -19 -47 -19
-276 -1 -308 17 -30 7 -42 -13 -16 -41 55 -75 184 -75 289 0 154 63 365 141
476 l19 27 -101 153 c-56 85 -105 156 -108 159 -3 3 -33 46 -65 95 -33 50
-130 194 -217 320 -179 263 -192 287 -210 374 -24 126 28 277 132 378 41 41
59 66 59 84 0 25 -39 94 -91 160 l-29 37 0 237 c0 251 -1 254 -51 313 -16 18
-29 38 -29 45 0 7 41 66 90 132 49 66 109 156 132 200 35 65 72 110 204 245
l162 165 63 -17 c134 -35 233 -41 740 -40 467 1 499 3 561 22 74 23 152 84
174 137 8 18 14 51 14 74 0 54 24 48 28 -8z m247 0 c1 -97 59 -160 186 -203
62 -21 78 -22 549 -23 488 0 628 7 750 39 30 8 61 12 70 9 21 -7 279 -270 319
-325 18 -24 40 -63 50 -85 10 -22 64 -101 120 -175 55 -74 101 -140 101 -146
0 -7 -18 -34 -40 -60 l-40 -49 0 -243 0 -243 -32 -42 c-18 -23 -35 -44 -38
-47 -13 -12 -47 -78 -54 -103 -5 -23 2 -35 59 -94 41 -42 79 -93 98 -133 30
-61 32 -72 32 -170 0 -85 -4 -114 -21 -151 -24 -52 -24 -51 -397 -606 l-277
-412 28 -48 c69 -118 104 -226 122 -373 14 -115 -4 -254 -42 -322 -27 -48 -54
-66 -39 -24 17 43 23 168 12 235 -21 130 -85 221 -211 304 -76 50 -346 185
-543 272 -46 20 -53 37 -62 140 -3 44 -8 96 -11 115 -8 61 -24 214 -24 237 0
12 21 45 49 75 67 73 91 104 139 174 38 57 152 243 152 249 0 2 17 32 38 66
48 79 187 358 229 459 67 161 72 214 29 340 -30 90 -211 548 -252 638 -13 29
-24 56 -24 59 0 4 -12 19 -27 35 -19 20 -23 29 -12 32 24 7 524 26 687 26 121
0 152 -3 152 -13 0 -8 -38 -59 -86 -113 l-85 -99 2 -275 c1 -151 6 -304 10
-340 11 -92 19 -350 10 -320 -15 49 -41 89 -77 118 l-36 30 23 13 c32 16 36
24 31 58 -4 27 -6 29 -43 24 -32 -5 -39 -3 -39 11 0 17 5 20 53 31 22 4 28 11
25 27 -2 14 -12 24 -26 28 l-24 5 32 40 31 40 -7 262 -7 262 68 78 69 78 -60
7 c-114 14 -614 1 -631 -16 -5 -5 142 -374 223 -561 7 -16 16 -43 19 -58 8
-29 56 -57 98 -57 31 0 8 -18 -28 -22 -27 -3 -30 -6 -27 -33 16 -167 14 -195
-13 -273 -66 -187 -328 -684 -463 -877 -31 -44 -58 -82 -62 -85 -3 -3 -28 -32
-56 -65 -42 -49 -51 -67 -48 -90 2 -17 8 -73 14 -125 31 -291 35 -310 61 -310
30 0 368 -163 504 -243 167 -98 239 -197 270 -370 l15 -82 -5 130 c-6 179 -50
326 -134 449 l-32 46 115 172 c113 172 326 484 343 503 5 6 54 78 109 160 111
166 138 233 139 335 0 107 -46 203 -145 296 -37 35 -50 55 -50 76 0 38 31 100
85 173 l45 60 0 237 0 236 35 46 c19 26 35 51 35 57 0 6 -44 70 -99 142 -54
73 -104 148 -111 167 -13 32 -60 110 -85 137 -5 6 -66 68 -135 138 -106 107
-129 126 -150 122 -14 -3 -63 -12 -110 -20 -178 -33 -876 -49 -1113 -27 -112
11 -171 30 -235 78 l-34 24 16 -29 c39 -77 115 -158 266 -286 47 -40 98 -85
115 -100 27 -27 28 -28 5 -16 -24 12 -79 48 -90 59 -3 3 -31 25 -63 49 -31 24
-95 83 -141 132 -111 116 -159 209 -164 316 -3 57 -1 73 9 73 10 0 14 -14 14
-47z m56 -480 c59 -98 117 -161 158 -173 55 -15 163 -12 362 10 189 21 223 20
240 -11 9 -18 64 -186 110 -339 23 -77 35 -104 64 -145 38 -54 40 -58 17 -46
-41 22 -81 84 -108 170 -42 135 -74 225 -82 233 -5 5 -101 -7 -213 -27 -112
-19 -233 -40 -269 -45 -36 -5 -95 -14 -131 -20 -178 -27 -268 3 -292 99 -5 22
-3 21 31 -11 83 -79 159 -78 621 2 97 17 186 33 198 36 29 6 42 50 21 71 -13
12 -31 13 -124 3 -60 -6 -134 -15 -164 -20 -65 -11 -166 -28 -235 -41 -99 -17
-195 -23 -195 -10 0 6 16 11 36 11 37 0 140 15 204 30 34 8 34 8 -15 10 -97 3
-252 25 -268 38 -11 9 -17 39 -21 100 -4 48 -9 116 -11 152 l-5 65 17 -40 c9
-22 33 -68 54 -102z m-332 -56 c-7 -65 -18 -121 -23 -126 -13 -9 -200 -31
-265 -31 -24 0 -42 -2 -39 -5 8 -8 171 -35 215 -35 23 0 45 -4 48 -10 8 -13
-92 -13 -148 -1 -125 28 -368 68 -465 76 -93 8 -112 2 -112 -36 0 -35 13 -42
115 -59 39 -6 104 -18 145 -26 280 -52 435 -65 511 -42 22 6 57 27 79 45 39
34 40 34 30 8 -5 -14 -14 -35 -20 -45 -16 -29 -91 -60 -146 -60 -80 0 -280 29
-562 81 -110 20 -168 27 -176 20 -13 -11 -21 -31 -70 -191 -39 -127 -67 -175
-117 -204 l-34 -20 31 40 c43 54 57 85 88 189 76 256 98 316 122 332 22 14 38
14 176 -3 84 -10 215 -18 290 -18 l137 -1 31 30 c36 34 144 191 156 227 15 46
17 -13 3 -135z m-1199 -232 c0 -8 -14 -47 -31 -87 -17 -40 -39 -91 -49 -113
-9 -22 -25 -62 -35 -88 -10 -26 -34 -65 -54 -86 -34 -37 -112 -77 -125 -64 -3
4 -6 83 -6 176 0 198 7 224 73 256 54 27 227 31 227 6z m2904 -5 c16 -8 39
-28 50 -43 19 -26 21 -45 24 -204 2 -96 0 -179 -5 -183 -13 -13 -82 15 -114
46 -16 16 -41 53 -56 84 -50 105 -130 309 -124 316 12 12 196 -1 225 -16z
m-1535 -288 c33 -106 67 -181 85 -188 13 -5 126 16 411 77 104 22 223 45 280
53 l40 6 -114 -113 c-199 -195 -301 -328 -389 -508 -93 -191 -131 -355 -139
-605 -8 -238 22 -455 94 -667 43 -127 41 -136 -42 -197 -47 -35 -56 -46 -51
-64 5 -21 -5 -28 -100 -75 -59 -28 -114 -49 -123 -46 -54 17 -186 92 -183 105
8 34 -10 60 -59 86 -56 31 -85 73 -71 102 15 28 50 132 67 202 103 404 76 836
-70 1135 -99 202 -187 320 -386 518 -66 64 -119 119 -119 121 0 7 59 -3 315
-56 346 -71 396 -80 411 -74 20 8 89 171 101 239 3 15 8 27 12 27 3 0 17 -35
30 -78z m1951 -312 c0 -212 3 -276 16 -320 21 -71 30 -354 14 -419 -18 -74
-129 -278 -273 -503 -119 -186 -202 -317 -262 -413 -127 -206 -140 -225 -153
-230 -7 -2 -34 4 -60 14 -70 28 -264 122 -260 127 6 6 141 -40 281 -95 16 -6
29 -11 31 -11 2 0 48 72 292 454 109 170 288 465 318 523 53 105 59 138 58
293 -1 80 -6 169 -12 199 -6 31 -10 197 -9 390 1 206 5 321 10 296 4 -22 8
-159 9 -305z m-3940 -1 c0 -180 -4 -318 -11 -355 -7 -32 -12 -135 -13 -229
l-1 -170 35 -70 c36 -72 203 -354 303 -510 32 -49 78 -124 104 -165 52 -85
212 -330 224 -344 4 -4 67 14 141 42 151 57 178 65 178 58 0 -9 -303 -146
-324 -146 -2 0 -19 24 -37 53 -67 107 -244 385 -308 482 -107 164 -249 403
-304 515 l-52 105 2 175 c2 142 5 184 20 220 16 39 18 85 21 355 2 196 7 304
12 295 6 -8 10 -146 10 -311z m832 20 c241 -80 480 -323 635 -649 76 -160 109
-303 118 -510 11 -267 -30 -546 -90 -606 l-23 -23 41 -23 c63 -35 60 -58 -10
-95 -71 -37 -167 -92 -336 -190 -147 -87 -157 -99 -157 -199 l0 -68 83 -81
c117 -115 278 -262 321 -292 l36 -26 93 48 c86 44 184 101 336 196 34 21 69
39 76 39 13 0 78 -35 100 -53 19 -16 281 -168 342 -198 58 -29 64 -31 86 -16
29 19 233 203 341 308 79 77 80 77 84 136 8 108 1 113 -358 319 -107 61 -196
118 -198 127 -2 8 15 25 43 41 41 24 44 29 30 42 -45 45 -74 164 -95 385 -21
213 12 477 79 644 37 92 125 257 179 334 165 238 413 417 602 435 41 3 56 2
40 -3 -142 -49 -286 -120 -368 -183 -111 -86 -267 -270 -342 -402 -135 -242
-162 -357 -159 -681 1 -187 11 -285 39 -395 6 -25 14 -56 17 -69 3 -13 24 -34
49 -50 24 -14 44 -28 44 -31 0 -3 -23 -20 -51 -37 l-51 -31 33 -17 c19 -10 99
-57 179 -105 80 -48 175 -104 213 -124 37 -21 79 -53 92 -70 22 -29 25 -43 25
-116 l0 -83 -62 -61 c-50 -49 -167 -156 -284 -261 -42 -38 -74 -64 -106 -89
l-38 -28 -48 25 c-43 23 -64 34 -143 79 -13 7 -26 15 -29 18 -3 3 -50 32 -105
64 -55 32 -117 70 -139 83 l-38 25 -50 -31 c-27 -17 -51 -31 -53 -31 -1 0 -61
-35 -131 -78 -71 -42 -162 -94 -202 -115 -70 -37 -74 -38 -98 -23 -54 36 -286
247 -416 379 -38 38 -38 38 -38 123 0 55 5 95 15 113 15 30 26 38 188 130 17
10 78 45 134 79 56 33 120 70 142 81 22 12 42 25 46 30 3 6 -15 22 -40 37 -25
14 -45 30 -43 35 2 4 19 18 38 31 38 26 52 56 75 172 51 258 45 594 -15 776
-62 192 -221 435 -383 587 -110 103 -196 154 -368 218 -93 35 -93 35 -39 29
30 -4 80 -15 112 -25z m-486 -436 c11 -10 59 -97 108 -193 103 -202 164 -318
216 -410 21 -36 55 -96 75 -135 21 -38 49 -88 62 -110 49 -85 183 -355 183
-369 0 -8 -19 -21 -42 -30 -178 -63 -162 -59 -176 -39 -7 10 -47 74 -89 143
-42 69 -92 152 -113 185 -20 33 -62 101 -92 150 -30 50 -94 153 -142 230 -48
77 -105 177 -128 222 l-42 81 13 54 c28 114 60 205 78 224 20 19 66 18 89 -3z
m3303 7 c17 -9 40 -60 70 -152 7 -21 13 -66 14 -100 2 -74 21 -36 -261 -508
-107 -179 -203 -338 -212 -355 -72 -125 -119 -190 -137 -188 -45 5 -193 66
-193 79 0 8 31 76 68 152 72 144 93 182 214 402 129 234 144 261 242 455 53
105 106 198 117 208 24 19 51 22 78 7z m-2367 -294 c79 -28 170 -116 198 -191
9 -23 -6 -12 -67 51 -74 76 -99 93 -213 142 -24 10 -24 11 10 11 19 0 52 -6
72 -13z m1443 4 c-3 -5 -12 -10 -18 -10 -39 0 -127 -57 -194 -125 -78 -79 -98
-76 -37 6 39 53 107 105 164 125 43 16 94 18 85 4z m-398 -1215 c23 -14 43
-30 43 -34 0 -5 -21 -22 -47 -39 -46 -28 -88 -51 -258 -142 -44 -24 -85 -47
-92 -52 -19 -15 -436 205 -430 227 5 13 78 55 97 55 9 -1 4 -9 -13 -21 -22
-17 -25 -24 -16 -35 6 -8 15 -14 20 -14 4 0 31 -14 59 -30 28 -17 95 -53 148
-81 53 -28 101 -55 105 -59 7 -6 60 20 242 120 81 44 125 72 125 78 0 3 -10
16 -22 29 -28 30 -15 29 39 -2z m-903 -234 c123 -66 213 -117 236 -134 l22
-15 -24 -13 c-35 -20 -249 -119 -281 -131 -24 -9 -36 -4 -105 38 -132 81 -152
100 -152 142 0 21 4 43 8 50 5 6 48 30 96 51 48 21 90 41 93 45 13 12 37 5
107 -33z m1246 -2 c157 -81 171 -129 58 -199 -29 -18 -80 -50 -114 -71 l-60
-39 -167 77 c-92 42 -167 79 -167 82 0 3 51 34 113 67 61 34 137 75 167 92 30
17 63 31 73 31 11 1 54 -17 97 -40z"/>
<path d="M2664 4200 c4 -41 9 -77 12 -79 7 -7 104 -14 104 -7 0 3 -28 41 -62
84 l-61 77 7 -75z"/>
<path d="M2293 4208 c-17 -23 -42 -56 -54 -72 l-23 -29 49 6 c27 4 53 11 58
16 4 4 7 34 5 65 l-3 58 -32 -44z"/>
<path d="M1783 1205 c-70 -33 -73 -36 -73 -69 0 -37 17 -52 146 -126 l41 -24
54 26 c30 14 82 37 116 53 35 15 60 31 58 36 -3 4 -18 14 -33 22 -40 21 -142
78 -177 99 -40 24 -48 23 -132 -17z"/>
<path d="M3070 1218 c-19 -12 -69 -39 -110 -61 -116 -61 -116 -56 5 -115 59
-29 113 -52 121 -52 13 0 26 6 119 60 126 73 117 106 -49 174 -46 19 -43 20
-86 -6z"/>
</g>
</svg>
